<svg width="223" height="35" viewBox="0 0 223 35" fill="none" xmlns="http://www.w3.org/2000/svg">
<path d="M21.168 27H15.7539L5.17188 8.5957V27H0.126953V1.08984H5.80469L16.123 19.1777V1.08984H21.168V27ZM44.2656 15.6797H31.6797V22.3418H46.0234V27H26.3887V1.08984H45.3906V5.67773H31.6797V11.1797H44.2656V15.6797ZM75.4492 1.08984H80.9512L73.6562 27H68.4883L65.3594 11.8477L64.4453 6.83789L63.5312 11.8477L60.4023 27H55.375L48.0273 1.08984H53.7754L57.2031 15.9258L57.9414 20.0566L58.6973 16.0137L61.6152 1.08984H67.3281L70.4043 15.9258L71.1953 20.0566L71.9863 16.084L75.4492 1.08984ZM109.445 1.08984H114.947L107.652 27H102.484L99.3555 11.8477L98.4414 6.83789L97.5273 11.8477L94.3984 27H89.3711L82.0234 1.08984H87.7715L91.1992 15.9258L91.9375 20.0566L92.6934 16.0137L95.6113 1.08984H101.324L104.4 15.9258L105.191 20.0566L105.982 16.084L109.445 1.08984ZM176.33 1.08984H182.113L187.738 20.7598L193.416 1.08984H199.041L190.199 27H185.084L176.33 1.08984ZM220.293 15.6797H207.707V22.3418H222.051V27H202.416V1.08984H221.418V5.67773H207.707V11.1797H220.293V15.6797Z" fill="white"/>
<path d="M123.332 34.2598L122.084 32.5547C121.275 31.5234 120.414 29.9883 119.5 27.9492C117.871 24.3047 117.057 20.7188 117.057 17.1914C117.057 13.9805 117.742 10.793 119.113 7.62891C120.039 5.47266 121.393 3.15234 123.174 0.667969H126.953L125.881 2.63672C124.404 5.34375 123.379 8.17969 122.805 11.1445C122.43 13.0898 122.242 15.2109 122.242 17.5078C122.242 21.0938 122.764 24.3926 123.807 27.4043C124.416 29.1855 125.494 31.4707 127.041 34.2598H123.332ZM145.393 21.6738H135.848L134.055 27H128.395L137.641 1.08984H143.758L152.934 27H147.062L145.393 21.6738ZM143.881 17.209L140.646 7.01367L137.307 17.209H143.881ZM155.816 1.08984H161.195V27H155.816V1.08984ZM168.842 32.5547L167.594 34.2598H163.885C165.432 31.4707 166.51 29.1855 167.119 27.4043C168.162 24.3926 168.684 21.0938 168.684 17.5078C168.684 15.2109 168.496 13.0898 168.121 11.1445C167.547 8.17969 166.521 5.34375 165.045 2.63672L163.973 0.667969H167.752C169.533 3.15234 170.887 5.47266 171.812 7.62891C173.184 10.793 173.869 13.9805 173.869 17.1914C173.869 20.7188 173.055 24.3047 171.426 27.9492C170.512 29.9883 169.65 31.5234 168.842 32.5547Z" fill="#C21DDC"/>
</svg>
