<svg width="300" height="48" viewBox="0 0 300 48" fill="none" xmlns="http://www.w3.org/2000/svg">
<path d="M28.4771 36.5764H21.1936L6.95767 11.6445V36.5764H0.170776V1.47644H7.80899L21.6901 25.9797V1.47644H28.4771V36.5764ZM59.5501 21.241H42.6184V30.266H61.9149V36.5764H35.5005V1.47644H61.0636V7.69156H42.6184V15.145H59.5501V21.241ZM101.501 1.47644H108.903L99.089 36.5764H92.1367L87.9274 16.0499L86.6977 9.26321L85.468 16.0499L81.2587 36.5764H74.4955L64.6107 1.47644H72.3436L76.9548 21.5744L77.9481 27.1703L78.965 21.6935L82.8904 1.47644H90.5759L94.7143 21.5744L95.7784 27.1703L96.8425 21.7887L101.501 1.47644ZM147.235 1.47644H154.637L144.823 36.5764H137.871L133.662 16.0499L132.432 9.26321L131.203 16.0499L126.993 36.5764H120.23L110.345 1.47644H118.078L122.69 21.5744L123.683 27.1703L124.7 21.6935L128.625 1.47644H136.31L140.448 21.5744L141.513 27.1703L142.577 21.7887L147.235 1.47644ZM237.215 1.47644H244.995L252.562 28.1229L260.201 1.47644H267.768L255.873 36.5764H248.992L237.215 1.47644ZM296.358 21.241H279.426V30.266H298.723V36.5764H272.309V1.47644H297.872V7.69156H279.426V15.145H296.358V21.241Z" fill="white"/>
<path d="M165.917 46.4111L164.239 44.1012C163.15 42.7041 161.992 40.6246 160.762 37.8622C158.571 32.9251 157.476 28.0674 157.476 23.2889C157.476 18.9391 158.397 14.6211 160.242 10.3348C161.487 7.41373 163.309 4.27043 165.705 0.904907H170.789L169.347 3.57193C167.36 7.23909 165.981 11.0809 165.209 15.0973C164.704 17.7325 164.451 20.6059 164.451 23.7175C164.451 28.5754 165.153 33.0442 166.556 37.1241C167.376 39.537 168.826 42.6327 170.907 46.4111H165.917ZM195.596 29.3611H182.755L180.343 36.5764H172.729L185.167 1.47641H193.396L205.741 36.5764H197.841L195.596 29.3611ZM193.562 23.3127L189.21 9.5013L184.718 23.3127H193.562ZM209.618 1.47641H216.854V36.5764H209.618V1.47641ZM227.142 44.1012L225.463 46.4111H220.473C222.554 42.6327 224.004 39.537 224.824 37.1241C226.227 33.0442 226.929 28.5754 226.929 23.7175C226.929 20.6059 226.676 17.7325 226.172 15.0973C225.4 11.0809 224.019 7.23909 222.034 3.57193L220.591 0.904907H225.675C228.071 4.27043 229.893 7.41373 231.137 10.3348C232.983 14.6211 233.904 18.9391 233.904 23.2889C233.904 28.0674 232.809 32.9251 230.618 37.8622C229.388 40.6246 228.229 42.7041 227.142 44.1012Z" fill="white"/>
</svg>
