<svg width="120" height="65" viewBox="0 0 120 65" fill="none" xmlns="http://www.w3.org/2000/svg">
<path d="M1.17619 26V0.9616H11.0546C12.9537 0.9616 14.5716 1.3243 15.9083 2.04969C17.2449 2.76694 18.2638 3.76538 18.9647 5.04501C19.6738 6.31649 20.0283 7.78359 20.0283 9.44629C20.0283 11.109 19.6697 12.5761 18.9525 13.8476C18.2352 15.1191 17.196 16.1093 15.8349 16.8184C14.4819 17.5275 12.8437 17.8821 10.9201 17.8821H4.62386V13.6397H10.0643C11.0831 13.6397 11.9227 13.4645 12.5828 13.114C13.2512 12.7554 13.7484 12.2623 14.0744 11.6347C14.4086 10.999 14.5756 10.2695 14.5756 9.44629C14.5756 8.61494 14.4086 7.88954 14.0744 7.2701C13.7484 6.64251 13.2512 6.15756 12.5828 5.81524C11.9145 5.46476 11.0668 5.28953 10.0399 5.28953H6.46995V26H1.17619ZM38.9325 0.9616H44.2262V17.2219C44.2262 19.0476 43.7902 20.6451 42.9181 22.0144C42.0541 23.3837 40.8438 24.4514 39.287 25.2175C37.7303 25.9755 35.9168 26.3545 33.8465 26.3545C31.7682 26.3545 29.9506 25.9755 28.3938 25.2175C26.8371 24.4514 25.6267 23.3837 24.7628 22.0144C23.8988 20.6451 23.4668 19.0476 23.4668 17.2219V0.9616H28.7606V16.7695C28.7606 17.7231 28.9684 18.5708 29.3841 19.3125C29.8079 20.0542 30.4029 20.637 31.1691 21.0608C31.9352 21.4846 32.8277 21.6965 33.8465 21.6965C34.8735 21.6965 35.766 21.4846 36.524 21.0608C37.2901 20.637 37.881 20.0542 38.2967 19.3125C38.7205 18.5708 38.9325 17.7231 38.9325 16.7695V0.9616ZM48.5817 26V0.9616H58.4601C60.351 0.9616 61.9648 1.29985 63.3015 1.97634C64.6463 2.64468 65.6692 3.59422 66.3702 4.82495C67.0793 6.04752 67.4338 7.48609 67.4338 9.14065C67.4338 10.8034 67.0752 12.2338 66.3579 13.4319C65.6407 14.6219 64.6015 15.5347 63.2404 16.1705C61.8874 16.8062 60.2491 17.1241 58.3256 17.1241H51.7115V12.8695H57.4698C58.4805 12.8695 59.32 12.731 59.9883 12.4538C60.6567 12.1767 61.1538 11.761 61.4799 11.2068C61.814 10.6526 61.9811 9.96385 61.9811 9.14065C61.9811 8.30929 61.814 7.60835 61.4799 7.03781C61.1538 6.46728 60.6526 6.0353 59.9761 5.74188C59.3077 5.44031 58.4642 5.28953 57.4453 5.28953H53.8754V26H48.5817ZM62.1034 14.6056L68.3263 26H62.4824L56.3939 14.6056H62.1034ZM71.1749 26V0.9616H88.0465V5.3262H76.4687V11.2924H87.1784V15.657H76.4687V21.6354H88.0954V26H71.1749ZM92.2552 0.9616H98.7838L105.679 17.7843H105.973L112.868 0.9616H119.396V26H114.262V9.70303H114.054L107.574 25.8777H104.078L97.5979 9.6419H97.39V26H92.2552V0.9616ZM24.1851 51.4808C24.1851 54.2112 23.6676 56.5341 22.6324 58.4495C21.6055 60.3649 20.2036 61.8279 18.4268 62.8386C16.6581 63.8411 14.6694 64.3423 12.4606 64.3423C10.2355 64.3423 8.23862 63.837 6.46995 62.8263C4.70129 61.8157 3.30348 60.3526 2.27651 58.4373C1.24954 56.5219 0.736061 54.2031 0.736061 51.4808C0.736061 48.7504 1.24954 46.4275 2.27651 44.5121C3.30348 42.5967 4.70129 41.1378 6.46995 40.1353C8.23862 39.1246 10.2355 38.6193 12.4606 38.6193C14.6694 38.6193 16.6581 39.1246 18.4268 40.1353C20.2036 41.1378 21.6055 42.5967 22.6324 44.5121C23.6676 46.4275 24.1851 48.7504 24.1851 51.4808ZM18.818 51.4808C18.818 49.7121 18.5531 48.2206 18.0233 47.0062C17.5017 45.7917 16.7641 44.8707 15.8104 44.2431C14.8568 43.6155 13.7402 43.3018 12.4606 43.3018C11.181 43.3018 10.0643 43.6155 9.11072 44.2431C8.15711 44.8707 7.41541 45.7917 6.88563 47.0062C6.364 48.2206 6.10318 49.7121 6.10318 51.4808C6.10318 53.2495 6.364 54.741 6.88563 55.9554C7.41541 57.1699 8.15711 58.0909 9.11072 58.7185C10.0643 59.3461 11.181 59.6598 12.4606 59.6598C13.7402 59.6598 14.8568 59.3461 15.8104 58.7185C16.7641 58.0909 17.5017 57.1699 18.0233 55.9554C18.5531 54.741 18.818 53.2495 18.818 51.4808ZM36.9824 64H28.1065V38.9616H37.0558C39.5743 38.9616 41.7424 39.4629 43.5599 40.4654C45.3775 41.4597 46.7753 42.8902 47.7534 44.7566C48.7396 46.6231 49.2327 48.8563 49.2327 51.4563C49.2327 54.0645 48.7396 56.3059 47.7534 58.1805C46.7753 60.0551 45.3693 61.4937 43.5355 62.4962C41.7097 63.4987 39.5254 64 36.9824 64ZM33.4003 59.4642H36.7624C38.3273 59.4642 39.6436 59.1871 40.7113 58.6329C41.7872 58.0705 42.5941 57.2025 43.132 56.0288C43.6781 54.847 43.9511 53.3228 43.9511 51.4563C43.9511 49.6062 43.6781 48.0943 43.132 46.9206C42.5941 45.7469 41.7913 44.883 40.7235 44.3287C39.6558 43.7745 38.3395 43.4974 36.7746 43.4974H33.4003V59.4642ZM56.0577 64H50.385L59.0286 38.9616H65.8506L74.482 64H68.8092L62.5374 44.6833H62.3418L56.0577 64ZM55.7032 54.1582H69.1026V58.2906H55.7032V54.1582Z" fill="black"/>
</svg>
