<svg width="24" height="25" viewBox="0 0 24 25" fill="none" xmlns="http://www.w3.org/2000/svg">
<path d="M17.25 12.8948C17.8467 12.8948 18.419 13.1318 18.841 13.5538C19.2629 13.9757 19.5 14.548 19.5 15.1448V15.8948C19.5 18.8513 16.71 21.8948 12 21.8948C7.29 21.8948 4.5 18.8513 4.5 15.8948V15.1448C4.5 14.548 4.73705 13.9757 5.15901 13.5538C5.58097 13.1318 6.15326 12.8948 6.75 12.8948H17.25ZM17.25 14.3948H6.75C6.55109 14.3948 6.36032 14.4738 6.21967 14.6144C6.07902 14.7551 6 14.9459 6 15.1448V15.8948C6 18.0518 8.148 20.3948 12 20.3948C15.852 20.3948 18 18.0518 18 15.8948V15.1448C18 14.9459 17.921 14.7551 17.7803 14.6144C17.6397 14.4738 17.4489 14.3948 17.25 14.3948ZM12 3.14478C13.094 3.14478 14.1432 3.57937 14.9168 4.35296C15.6904 5.12655 16.125 6.17576 16.125 7.26978C16.125 8.36379 15.6904 9.413 14.9168 10.1866C14.1432 10.9602 13.094 11.3948 12 11.3948C10.906 11.3948 9.85677 10.9602 9.08318 10.1866C8.3096 9.413 7.875 8.36379 7.875 7.26978C7.875 6.17576 8.3096 5.12655 9.08318 4.35296C9.85677 3.57937 10.906 3.14478 12 3.14478ZM12 4.64478C11.3038 4.64478 10.6361 4.92134 10.1438 5.41362C9.65156 5.9059 9.375 6.57358 9.375 7.26978C9.375 7.96597 9.65156 8.63365 10.1438 9.12593C10.6361 9.61821 11.3038 9.89478 12 9.89478C12.6962 9.89478 13.3639 9.61821 13.8562 9.12593C14.3484 8.63365 14.625 7.96597 14.625 7.26978C14.625 6.57358 14.3484 5.9059 13.8562 5.41362C13.3639 4.92134 12.6962 4.64478 12 4.64478Z" fill="#4C4674"/>
</svg>
