<svg width="24" height="25" viewBox="0 0 24 25" fill="none" xmlns="http://www.w3.org/2000/svg">
<path fill-rule="evenodd" clip-rule="evenodd" d="M12 3.89478C11.0054 3.89478 10.0516 4.28986 9.34835 4.99313C8.64509 5.69639 8.25 6.65021 8.25 7.64478V8.39478H15.75V7.64478C15.75 6.65021 15.3549 5.69639 14.6517 4.99313C13.9484 4.28986 12.9946 3.89478 12 3.89478ZM17.25 8.39478V7.64478C17.25 6.25239 16.6969 4.91703 15.7123 3.93246C14.7277 2.9479 13.3924 2.39478 12 2.39478C10.6076 2.39478 9.27226 2.9479 8.28769 3.93246C7.30312 4.91703 6.75 6.25239 6.75 7.64478V8.39478H3.75C3.35217 8.39478 2.97064 8.55281 2.68934 8.83412C2.40804 9.11542 2.25 9.49695 2.25 9.89478V20.0198C2.25 21.8515 3.79329 23.3948 5.625 23.3948H18.375C20.1846 23.3948 21.75 21.9319 21.75 20.0784V9.89478C21.75 9.49695 21.592 9.11542 21.3107 8.83412C21.0294 8.55281 20.6478 8.39478 20.25 8.39478H17.25ZM3.75 9.89478L3.75 20.0198C3.75 21.0231 4.62171 21.8948 5.625 21.8948H18.375C19.4004 21.8948 20.25 21.0599 20.25 20.0784V9.89478H3.75Z" fill="#4C4674"/>
</svg>
