<svg width="24" height="25" viewBox="0 0 24 25" fill="none" xmlns="http://www.w3.org/2000/svg">
<g clip-path="url(#clip0_1_173)">
<path fill-rule="evenodd" clip-rule="evenodd" d="M21.18 14.3048L20.07 12.5798C19.695 11.9948 19.5 11.3048 19.5 10.6148V9.90979C19.5 5.63479 16.14 2.15479 12 2.15479C7.85999 2.15479 4.49999 5.61979 4.49999 9.89479V10.5998C4.49999 11.3048 4.30499 11.9798 3.92999 12.5648L2.81999 14.2898C2.20499 15.2498 2.08499 16.4498 2.48999 17.5148C2.87999 18.5648 3.71999 19.3298 4.76999 19.6298C5.44499 19.8248 6.11999 19.9748 6.79499 20.1098V20.1398C7.55999 22.1948 9.61499 23.6198 12 23.6198C14.385 23.6198 16.44 22.1798 17.205 20.1398V20.1098C17.88 19.9748 18.555 19.8248 19.23 19.6298C20.28 19.3298 21.12 18.5648 21.51 17.5148C21.915 16.4498 21.795 15.2498 21.18 14.2898V14.3048ZM12 22.1498C10.575 22.1498 9.34499 21.4448 8.62499 20.4248C9.74999 20.5748 10.875 20.6498 12 20.6498C13.125 20.6498 14.25 20.5748 15.375 20.4248C14.67 21.4448 13.44 22.1498 12 22.1498ZM20.115 17.0048C19.89 17.6048 19.425 18.0398 18.825 18.2048C14.355 19.4648 9.64499 19.4648 5.17499 18.2048C4.58999 18.0398 4.10999 17.6048 3.88499 17.0048C3.64499 16.3748 3.71999 15.6848 4.07999 15.1298L5.18999 13.4048C5.71499 12.5798 5.99999 11.6048 5.99999 10.6298V9.92479C5.99999 6.47479 8.68499 3.66979 12 3.66979C15.315 3.66979 18 6.47479 18 9.92479V10.6298C18 11.6198 18.285 12.5798 18.81 13.4198L19.92 15.1448C20.28 15.7148 20.355 16.3898 20.115 17.0198V17.0048Z" fill="#4C4674"/>
</g>
<defs>
<clipPath id="clip0_1_173">
<rect width="24" height="24" fill="white" transform="translate(0 0.894775)"/>
</clipPath>
</defs>
</svg>
