<svg width="24" height="24" viewBox="0 0 24 24" fill="none" xmlns="http://www.w3.org/2000/svg">
<g clip-path="url(#clip0_1_208)">
<path fill-rule="evenodd" clip-rule="evenodd" d="M9.06757 3.41757C9.54709 3.69158 9.71369 4.30244 9.43968 4.78195L6.86604 9.28582H17.134L14.5603 4.78195C14.2863 4.30244 14.4529 3.69158 14.9324 3.41757C15.412 3.14356 16.0228 3.31016 16.2968 3.78968L19.4375 9.28582H21.0425C21.4457 9.27933 21.8454 9.36279 22.2125 9.53019C22.5829 9.69916 22.9106 9.9493 23.1713 10.2621C23.432 10.5749 23.6189 10.9423 23.7183 11.3372C23.8175 11.7314 23.827 12.1428 23.7459 12.5411C23.7458 12.5418 23.7456 12.5425 23.7455 12.5432L21.8606 21.9676L21.8598 21.9713C21.7329 22.5936 21.3918 23.1518 20.8959 23.5485C20.4028 23.943 19.7878 24.1531 19.1567 24.143H4.84329C4.2122 24.1531 3.59717 23.943 3.10413 23.5485C2.60818 23.1518 2.26707 22.5936 2.14017 21.9713L2.13943 21.9676L0.254538 12.5432C0.254385 12.5424 0.254232 12.5417 0.254079 12.5409C0.173055 12.1427 0.182485 11.7313 0.281688 11.3372C0.381078 10.9423 0.568031 10.5749 0.828699 10.2621C1.08937 9.9493 1.41707 9.69916 1.78753 9.53019C2.15458 9.36279 2.55427 9.27933 2.95754 9.28582H4.56254L7.70319 3.78968C7.9772 3.31016 8.58806 3.14356 9.06757 3.41757ZM5.12344 11.2858H2.94858L2.92833 11.2856C2.8212 11.2834 2.71496 11.3054 2.61747 11.3499C2.51998 11.3943 2.43374 11.4602 2.36514 11.5425C2.29654 11.6248 2.24735 11.7215 2.22119 11.8254C2.19504 11.9293 2.19259 12.0378 2.21405 12.1428L2.21488 12.1468L2.21487 12.1468L4.09984 21.5717C4.09994 21.5722 4.10003 21.5727 4.10013 21.5731C4.13375 21.7363 4.22338 21.8827 4.35352 21.9868C4.48403 22.0912 4.64703 22.1465 4.81413 22.1432L4.83429 22.143H19.1657L19.1859 22.1432C19.353 22.1465 19.516 22.0912 19.6465 21.9868C19.7766 21.8827 19.8662 21.7364 19.8999 21.5732C19.9 21.5727 19.9001 21.5722 19.9002 21.5717L21.7851 12.1468L21.786 12.1428C21.8074 12.0378 21.805 11.9293 21.7788 11.8254C21.7527 11.7215 21.7035 11.6248 21.6349 11.5425C21.5663 11.4602 21.48 11.3943 21.3825 11.3499C21.2851 11.3054 21.1788 11.2834 21.0717 11.2856L21.0514 11.2858H18.8766C18.8642 11.286 18.8519 11.286 18.8396 11.2858H5.16044C5.14812 11.286 5.13578 11.286 5.12344 11.2858Z" fill="#4C4674"/>
</g>
<defs>
<clipPath id="clip0_1_208">
<rect width="24" height="24" fill="white"/>
</clipPath>
</defs>
</svg>
