<svg width="190" height="48" viewBox="0 0 190 48" fill="none" xmlns="http://www.w3.org/2000/svg">
<path d="M40.5 6V36C40.5 36.3978 40.342 36.7794 40.0607 37.0607C39.7794 37.342 39.3978 37.5 39 37.5H13.5C12.7044 37.5 11.9413 37.8161 11.3787 38.3787C10.8161 38.9413 10.5 39.7044 10.5 40.5H36C36.3978 40.5 36.7794 40.658 37.0607 40.9393C37.342 41.2206 37.5 41.6022 37.5 42C37.5 42.3978 37.342 42.7794 37.0607 43.0607C36.7794 43.342 36.3978 43.5 36 43.5H9C8.60218 43.5 8.22064 43.342 7.93934 43.0607C7.65804 42.7794 7.5 42.3978 7.5 42V10.5C7.5 8.9087 8.13214 7.38258 9.25736 6.25736C10.3826 5.13214 11.9087 4.5 13.5 4.5H39C39.3978 4.5 39.7794 4.65804 40.0607 4.93934C40.342 5.22064 40.5 5.60218 40.5 6Z" fill="#4C4674"/>
<path d="M68.9531 35H58.5156V11.9688H69.7031C72.526 12.0104 74.526 12.8281 75.7031 14.4219C76.4115 15.401 76.7656 16.5729 76.7656 17.9375C76.7656 19.3438 76.4115 20.474 75.7031 21.3281C75.3073 21.8073 74.724 22.2448 73.9531 22.6406C75.1302 23.0677 76.0156 23.7448 76.6094 24.6719C77.2135 25.599 77.5156 26.724 77.5156 28.0469C77.5156 29.4115 77.1719 30.6354 76.4844 31.7188C76.0469 32.4375 75.5 33.0417 74.8438 33.5312C74.1042 34.0938 73.2292 34.4792 72.2188 34.6875C71.2188 34.8958 70.1302 35 68.9531 35ZM68.8438 24.8594H63.1094V31H68.7656C69.776 31 70.5625 30.8646 71.125 30.5938C72.1458 30.0938 72.6562 29.1354 72.6562 27.7188C72.6562 26.5208 72.1615 25.6979 71.1719 25.25C70.6198 25 69.8438 24.8698 68.8438 24.8594ZM71.2344 20.4688C71.8594 20.0938 72.1719 19.4219 72.1719 18.4531C72.1719 17.3802 71.7552 16.6719 70.9219 16.3281C70.2031 16.0885 69.2865 15.9688 68.1719 15.9688H63.1094V21.0469H68.7656C69.776 21.0469 70.599 20.8542 71.2344 20.4688ZM95.4062 20.125C96.8438 21.9271 97.5625 24.0573 97.5625 26.5156C97.5625 29.0156 96.8438 31.1562 95.4062 32.9375C93.9688 34.7083 91.7865 35.5938 88.8594 35.5938C85.9323 35.5938 83.75 34.7083 82.3125 32.9375C80.875 31.1562 80.1562 29.0156 80.1562 26.5156C80.1562 24.0573 80.875 21.9271 82.3125 20.125C83.75 18.3229 85.9323 17.4219 88.8594 17.4219C91.7865 17.4219 93.9688 18.3229 95.4062 20.125ZM88.8438 21.1875C87.5417 21.1875 86.5365 21.651 85.8281 22.5781C85.1302 23.4948 84.7812 24.8073 84.7812 26.5156C84.7812 28.224 85.1302 29.5417 85.8281 30.4688C86.5365 31.3958 87.5417 31.8594 88.8438 31.8594C90.1458 31.8594 91.1458 31.3958 91.8438 30.4688C92.5417 29.5417 92.8906 28.224 92.8906 26.5156C92.8906 24.8073 92.5417 23.4948 91.8438 22.5781C91.1458 21.651 90.1458 21.1875 88.8438 21.1875ZM114.969 20.125C116.406 21.9271 117.125 24.0573 117.125 26.5156C117.125 29.0156 116.406 31.1562 114.969 32.9375C113.531 34.7083 111.349 35.5938 108.422 35.5938C105.495 35.5938 103.312 34.7083 101.875 32.9375C100.438 31.1562 99.7188 29.0156 99.7188 26.5156C99.7188 24.0573 100.438 21.9271 101.875 20.125C103.312 18.3229 105.495 17.4219 108.422 17.4219C111.349 17.4219 113.531 18.3229 114.969 20.125ZM108.406 21.1875C107.104 21.1875 106.099 21.651 105.391 22.5781C104.693 23.4948 104.344 24.8073 104.344 26.5156C104.344 28.224 104.693 29.5417 105.391 30.4688C106.099 31.3958 107.104 31.8594 108.406 31.8594C109.708 31.8594 110.708 31.3958 111.406 30.4688C112.104 29.5417 112.453 28.224 112.453 26.5156C112.453 24.8073 112.104 23.4948 111.406 22.5781C110.708 21.651 109.708 21.1875 108.406 21.1875ZM135.953 35H130.578L126.5 27.7188L124.656 29.6406V35H120.281V12.0469H124.656V24.4531L130.203 18.0469H135.719L129.766 24.5625L135.953 35ZM138.781 19.8125C139.958 18.3125 141.979 17.5625 144.844 17.5625C146.708 17.5625 148.365 17.9323 149.812 18.6719C151.26 19.4115 151.984 20.8073 151.984 22.8594V30.6719C151.984 31.2135 151.995 31.8698 152.016 32.6406C152.047 33.224 152.135 33.6198 152.281 33.8281C152.427 34.0365 152.646 34.2083 152.938 34.3438V35H148.094C147.958 34.6562 147.865 34.3333 147.812 34.0312C147.76 33.7292 147.719 33.3854 147.688 33C147.073 33.6667 146.365 34.2344 145.562 34.7031C144.604 35.2552 143.521 35.5312 142.312 35.5312C140.771 35.5312 139.495 35.0938 138.484 34.2188C137.484 33.3333 136.984 32.0833 136.984 30.4688C136.984 28.375 137.792 26.8594 139.406 25.9219C140.292 25.4115 141.594 25.0469 143.312 24.8281L144.828 24.6406C145.651 24.5365 146.24 24.4062 146.594 24.25C147.229 23.9792 147.547 23.5573 147.547 22.9844C147.547 22.2865 147.302 21.8073 146.812 21.5469C146.333 21.276 145.625 21.1406 144.688 21.1406C143.635 21.1406 142.891 21.401 142.453 21.9219C142.141 22.3073 141.932 22.8281 141.828 23.4844H137.531C137.625 21.9948 138.042 20.7708 138.781 19.8125ZM142.094 31.7812C142.51 32.125 143.021 32.2969 143.625 32.2969C144.583 32.2969 145.464 32.0156 146.266 31.4531C147.078 30.8906 147.5 29.8646 147.531 28.375V26.7188C147.25 26.8958 146.964 27.0417 146.672 27.1562C146.391 27.2604 146 27.3594 145.5 27.4531L144.5 27.6406C143.562 27.8073 142.891 28.0104 142.484 28.25C141.797 28.6562 141.453 29.2865 141.453 30.1406C141.453 30.901 141.667 31.4479 142.094 31.7812ZM154.281 17.9688H159.281L162.828 30.5312L166.453 17.9688H171.234L165.094 35H160.391L154.281 17.9688ZM180.688 30.5312L184.203 17.9688H188.938L183.094 34.7188C181.969 37.9479 181.078 39.9479 180.422 40.7188C179.766 41.5 178.453 41.8906 176.484 41.8906C176.089 41.8906 175.771 41.8854 175.531 41.875C175.292 41.875 174.932 41.8594 174.453 41.8281V38.2656L175.016 38.2969C175.453 38.3177 175.87 38.3021 176.266 38.25C176.661 38.1979 176.995 38.0781 177.266 37.8906C177.526 37.7135 177.766 37.3438 177.984 36.7812C178.214 36.2188 178.307 35.875 178.266 35.75L172.016 17.9688H176.969L180.688 30.5312Z" fill="#4C4674"/>
</svg>
