<svg width="24" height="25" viewBox="0 0 24 25" fill="none" xmlns="http://www.w3.org/2000/svg">
<path fill-rule="evenodd" clip-rule="evenodd" d="M12 8.39478C10.8065 8.39478 9.66193 8.86888 8.81802 9.7128C7.97411 10.5567 7.5 11.7013 7.5 12.8948C7.5 14.0882 7.97411 15.2328 8.81802 16.0768C9.66193 16.9207 10.8065 17.3948 12 17.3948C12.5909 17.3948 13.1761 17.2784 13.7221 17.0522C14.268 16.8261 14.7641 16.4946 15.182 16.0768C15.5998 15.6589 15.9313 15.1628 16.1575 14.6168C16.3836 14.0709 16.5 13.4857 16.5 12.8948C16.5 12.3038 16.3836 11.7187 16.1575 11.1727C15.9313 10.6267 15.5998 10.1307 15.182 9.7128C14.7641 9.29493 14.268 8.96346 13.7221 8.73732C13.1761 8.51117 12.5909 8.39478 12 8.39478ZM10.2322 11.127C10.7011 10.6582 11.337 10.3948 12 10.3948C12.3283 10.3948 12.6534 10.4594 12.9567 10.5851C13.26 10.7107 13.5356 10.8949 13.7678 11.127C13.9999 11.3592 14.1841 11.6348 14.3097 11.9381C14.4353 12.2414 14.5 12.5665 14.5 12.8948C14.5 13.2231 14.4353 13.5482 14.3097 13.8515C14.1841 14.1548 13.9999 14.4304 13.7678 14.6625C13.5356 14.8947 13.26 15.0788 12.9567 15.2045C12.6534 15.3301 12.3283 15.3948 12 15.3948C11.337 15.3948 10.7011 15.1314 10.2322 14.6625C9.76339 14.1937 9.5 13.5578 9.5 12.8948C9.5 12.2317 9.76339 11.5958 10.2322 11.127Z" fill="#4C4674"/>
<path fill-rule="evenodd" clip-rule="evenodd" d="M10.2171 2.80239C10.0013 2.3786 9.51681 2.16545 9.05855 2.29265C7.36048 2.76397 5.80075 3.63695 4.51104 4.83787C4.18808 5.1386 4.10042 5.61547 4.29532 6.01139C4.44545 6.31636 4.51538 6.65456 4.4985 6.99406C4.48161 7.33356 4.37848 7.66315 4.19883 7.95172C4.01919 8.24029 3.76895 8.47831 3.47177 8.64331C3.17458 8.8083 2.83992 8.89483 2.5 8.89472H2.458C2.02135 8.89472 1.63518 9.17804 1.50411 9.59456C1.17583 10.6378 1.00005 11.7468 1 12.8942L2 12.8947H1C0.999648 13.6385 1.07443 14.3805 1.22321 15.1092C1.32579 15.6117 1.79184 15.9551 2.30214 15.9043C2.6982 15.8648 3.09702 15.9444 3.44757 16.1329C3.79812 16.3214 4.08447 16.6102 4.26996 16.9624C4.45545 17.3145 4.53165 17.714 4.48881 18.1097C4.44597 18.5054 4.28603 18.8793 4.02948 19.1836C3.69957 19.5749 3.71835 20.1521 4.073 20.5212C5.38873 21.8902 7.0365 22.8952 8.85591 23.4384C9.37752 23.5942 9.92789 23.3041 10.0942 22.7857C10.2237 22.3821 10.4781 22.0299 10.8206 21.7801C11.1631 21.5303 11.5761 21.3957 12 21.3957C12.4239 21.3957 12.8369 21.5303 13.1794 21.7801C13.522 22.0299 13.7763 22.3821 13.9058 22.7857C14.0721 23.304 14.6224 23.5941 15.144 23.4384C16.9634 22.8954 18.6111 21.8905 19.9269 20.5217C20.2816 20.1527 20.3005 19.5754 19.9705 19.1841C19.714 18.8798 19.554 18.5059 19.5112 18.1102C19.4684 17.7145 19.5446 17.315 19.73 16.9629C19.9155 16.6107 20.2019 16.3219 20.5524 16.1334C20.903 15.9449 21.3018 15.8653 21.6979 15.9048C22.2081 15.9556 22.6741 15.6123 22.7768 15.1099C22.9231 14.3938 22.9999 13.6531 23 12.8956V12.8947H22L23 12.8956C23.001 11.7763 22.8311 10.6635 22.4962 9.59548C22.3638 9.17343 21.9699 8.88847 21.5276 8.89483C21.1853 8.89975 20.8475 8.81673 20.5465 8.65372C20.2455 8.49071 19.9914 8.25317 19.8084 7.96383C19.6255 7.6745 19.5199 7.34305 19.5017 7.00121C19.4835 6.65937 19.5534 6.3186 19.7046 6.01149C19.8996 5.61556 19.812 5.13863 19.489 4.83787C18.1993 3.63695 16.6395 2.76397 14.9415 2.29265C14.4832 2.16545 13.9987 2.3786 13.7829 2.80239C13.6155 3.13119 13.3603 3.40725 13.0457 3.60004C12.7311 3.79282 12.3687 3.89481 11.9998 3.89472C11.6308 3.89481 11.2689 3.79282 10.9543 3.60004C10.6397 3.40725 10.3845 3.13119 10.2171 2.80239ZM6.49603 7.09339C6.51653 6.68109 6.47302 6.26974 6.36844 5.87365C7.13251 5.25962 7.99186 4.77482 8.91226 4.43843C9.19302 4.77914 9.52953 5.0726 9.90939 5.30536C10.5297 5.68545 11.2422 5.88908 11.9693 5.89461C11.9796 5.89469 11.9899 5.89472 12.0002 5.89472C12.7381 5.89481 13.4615 5.69084 14.0906 5.30536C14.4705 5.0726 14.807 4.77914 15.0877 4.43843C16.0081 4.77481 16.8675 5.25959 17.6315 5.87361C17.5257 6.27421 17.4824 6.69041 17.5045 7.10739C17.5409 7.79106 17.7521 8.45396 18.118 9.03264C18.4838 9.61131 18.9921 10.0864 19.5941 10.4124C19.9607 10.6109 20.3546 10.7501 20.7611 10.8264C20.9203 11.5033 21.0006 12.197 21 12.8938V12.8947C21 13.2464 20.9798 13.5933 20.9407 13.9342C20.4757 13.9998 20.0233 14.1472 19.6053 14.3719C18.9042 14.7489 18.3315 15.3265 17.9605 16.0308C17.5895 16.7351 17.4371 17.5341 17.5228 18.3255C17.574 18.7981 17.7087 19.2551 17.9181 19.6763C17.1624 20.3366 16.3015 20.8657 15.3714 21.2418C15.1051 20.8252 14.7622 20.4591 14.358 20.1643C13.6732 19.6648 12.8476 19.3957 12 19.3957C11.1524 19.3957 10.3268 19.6648 9.64201 20.1643C9.23777 20.4591 8.89496 20.8252 8.62866 21.2417C7.69851 20.8655 6.8376 20.3363 6.08184 19.6759C6.29133 19.2547 6.42602 18.7976 6.47719 18.325C6.56287 17.5336 6.41047 16.7346 6.03949 16.0303C5.66851 15.326 5.09583 14.7484 4.39472 14.3714C3.97668 14.1466 3.52431 13.9993 3.05926 13.9337C3.01963 13.5892 2.99982 13.2425 3 12.8952L3 12.8947C3 12.1818 3.08253 11.4893 3.23858 10.8261C3.65905 10.7472 4.06574 10.6011 4.44257 10.3919C5.03695 10.0619 5.53741 9.58585 5.8967 9.00872C6.25599 8.43158 6.46226 7.77239 6.49603 7.09339Z" fill="#4C4674"/>
</svg>
