<svg width="24" height="25" viewBox="0 0 24 25" fill="none" xmlns="http://www.w3.org/2000/svg">
<path fill-rule="evenodd" clip-rule="evenodd" d="M11.292 4.20278C10.898 4.71678 10.454 5.51078 9.808 6.66878L9.481 7.25578L9.422 7.36178C9.122 7.90178 8.867 8.35978 8.458 8.66978C8.045 8.98378 7.541 9.09678 6.955 9.22878L6.841 9.25478L6.205 9.39878C4.95 9.68278 4.095 9.87778 3.511 10.1088C2.94 10.3328 2.82 10.5178 2.774 10.6648C2.725 10.8208 2.724 11.0598 3.064 11.6018C3.411 12.1518 3.996 12.8378 4.85 13.8378L5.284 14.3448L5.359 14.4318C5.762 14.9018 6.098 15.2938 6.252 15.7898C6.405 16.2828 6.354 16.7998 6.292 17.4278L6.282 17.5448L6.216 18.2218C6.086 19.5538 6 20.4718 6.029 21.1318C6.059 21.7918 6.198 21.9738 6.309 22.0578C6.407 22.1328 6.589 22.2148 7.182 22.0448C7.785 21.8728 8.587 21.5058 9.762 20.9648L10.358 20.6908L10.467 20.6408C11.012 20.3878 11.484 20.1698 12 20.1698C12.516 20.1698 12.988 20.3878 13.533 20.6398C13.5693 20.6572 13.606 20.6739 13.643 20.6898L14.238 20.9648C15.413 21.5058 16.215 21.8728 16.818 22.0448C17.411 22.2148 17.593 22.1328 17.691 22.0578C17.802 21.9738 17.941 21.7908 17.971 21.1318C18.001 20.4718 17.913 19.5538 17.784 18.2218L17.718 17.5448L17.708 17.4278C17.646 16.7998 17.595 16.2828 17.748 15.7898C17.902 15.2938 18.238 14.9018 18.641 14.4318L18.716 14.3448L19.15 13.8378C20.004 12.8378 20.589 12.1518 20.935 11.6018C21.276 11.0598 21.275 10.8218 21.226 10.6648C21.18 10.5178 21.06 10.3328 20.489 10.1088C19.904 9.87778 19.05 9.68278 17.795 9.39878L17.159 9.25478C17.12 9.24478 17.082 9.23678 17.045 9.22878C16.459 9.09678 15.955 8.98378 15.542 8.66978C15.132 8.35978 14.879 7.90278 14.578 7.36178L14.52 7.25578L14.192 6.66878C13.546 5.51078 13.102 4.71678 12.708 4.20278C12.315 3.68878 12.114 3.64478 12 3.64478C11.886 3.64478 11.685 3.68878 11.292 4.20278ZM10.102 3.29078C10.577 2.66878 11.166 2.14478 12 2.14478C12.834 2.14478 13.422 2.66878 13.899 3.29078C14.367 3.90278 14.864 4.79378 15.471 5.88278L15.83 6.52578C16.222 7.22978 16.323 7.37978 16.449 7.47578C16.569 7.56678 16.726 7.61878 17.489 7.79178L18.189 7.94978C19.365 8.21578 20.334 8.43478 21.039 8.71278C21.771 9.00178 22.412 9.42678 22.659 10.2198C22.903 11.0048 22.629 11.7268 22.205 12.3998C21.793 13.0548 21.135 13.8248 20.331 14.7648L19.856 15.3198C19.339 15.9238 19.231 16.0718 19.18 16.2348C19.129 16.4018 19.133 16.5948 19.212 17.3998L19.283 18.1378C19.405 19.3938 19.504 20.4178 19.469 21.1978C19.434 21.9928 19.254 22.7548 18.599 23.2528C17.931 23.7588 17.154 23.7028 16.404 23.4868C15.677 23.2788 14.771 22.8618 13.671 22.3548L13.015 22.0528C12.297 21.7228 12.144 21.6698 12 21.6698C11.856 21.6698 11.703 21.7228 10.985 22.0528L10.33 22.3548C9.229 22.8618 8.323 23.2788 7.596 23.4868C6.846 23.7018 6.069 23.7588 5.402 23.2528C4.746 22.7548 4.566 21.9928 4.531 21.1988C4.496 20.4188 4.595 19.3938 4.717 18.1388L4.789 17.3998C4.867 16.5938 4.871 16.4018 4.819 16.2348C4.769 16.0718 4.661 15.9248 4.144 15.3198L3.669 14.7648C2.866 13.8248 2.208 13.0548 1.796 12.4008C1.371 11.7268 1.097 11.0048 1.341 10.2198C1.588 9.42678 2.229 9.00178 2.961 8.71278C3.666 8.43478 4.635 8.21578 5.811 7.94978L5.874 7.93578L6.51 7.79178C7.274 7.61878 7.43 7.56678 7.551 7.47478C7.677 7.37978 7.778 7.22978 8.171 6.52578L8.529 5.88278C9.136 4.79278 9.633 3.90278 10.101 3.29078" fill="#4C4674"/>
</svg>
